<svg xmlns="http://www.w3.org/2000/svg" width="512" height="512" viewBox="0 0 512 512">
    <linearGradient id="gDt" x1="0" y1="0" x2="1" y2="1">
      <stop offset="0%" stop-color="#241B2A"/>
      <stop offset="100%" stop-color="#140F17"/>
    </linearGradient>
    <linearGradient id="gDd" x1="0" y1="0" x2="0" y2="1">
      <stop offset="0%" stop-color="#D9C8F7"/><stop offset="100%" stop-color="#7D55D3"/>
    </linearGradient><rect x="56" y="56" width="400" height="400" rx="96" fill="url(#gDt)"/><path d="M256.0,100.8 C256.0,100.8 164.2,245.8 164.2,299.1 A91.8,91.8 0 1,0 347.8,299.1 C347.8,245.8 256.0,100.8 256.0,100.8 Z" fill="url(#gDd)"/><ellipse cx="226" cy="220" rx="22" ry="38" fill="#FFFFFF" opacity="0.45" transform="rotate(-22 226 220)"/><path d="M360.0,130.0 Q360.0,160.0 390.0,160.0 Q360.0,160.0 360.0,190.0 Q360.0,160.0 330.0,160.0 Q360.0,160.0 360.0,130.0 Z" fill="#E7DBFB" opacity="0.9"/></svg>